<svg xmlns="http://www.w3.org/2000/svg" version="1.1" xmlns:xlink="http://www.w3.org/1999/xlink" xmlns:svgjs="http://svgjs.com/svgjs" width="1920" height="1080" preserveAspectRatio="none" viewBox="0 0 1920 1080"><g mask="url(&quot;#SvgjsMask3061&quot;)" fill="none"><rect width="1920" height="1080" x="0" y="0" fill="url(#SvgjsRadialGradient3062)"></rect><path d="M1319 195L1318 -223" stroke-width="10" stroke="url(#SvgjsLinearGradient3063)" stroke-linecap="round" class="Up"></path><path d="M1481 337L1480 793" stroke-width="6" stroke="url(#SvgjsLinearGradient3063)" stroke-linecap="round" class="Up"></path><path d="M1714 906L1713 1478" stroke-width="10" stroke="url(#SvgjsLinearGradient3064)" stroke-linecap="round" class="Down"></path><path d="M540 833L539 364" stroke-width="10" stroke="url(#SvgjsLinearGradient3063)" stroke-linecap="round" class="Up"></path><path d="M172 38L171 612" stroke-width="8" stroke="url(#SvgjsLinearGradient3064)" stroke-linecap="round" class="Down"></path><path d="M34 1027L33 223" stroke-width="6" stroke="url(#SvgjsLinearGradient3063)" stroke-linecap="round" class="Up"></path><path d="M1068 112L1067 -246" stroke-width="6" stroke="url(#SvgjsLinearGradient3064)" stroke-linecap="round" class="Down"></path><path d="M823 563L822 187" stroke-width="8" stroke="url(#SvgjsLinearGradient3064)" stroke-linecap="round" class="Down"></path><path d="M1574 1009L1573 1648" stroke-width="10" stroke="url(#SvgjsLinearGradient3063)" stroke-linecap="round" class="Up"></path><path d="M1866 974L1865 1736" stroke-width="10" stroke="url(#SvgjsLinearGradient3063)" stroke-linecap="round" class="Up"></path><path d="M557 909L556 1357" stroke-width="8" stroke="url(#SvgjsLinearGradient3063)" stroke-linecap="round" class="Up"></path><path d="M315 480L314 1067" stroke-width="10" stroke="url(#SvgjsLinearGradient3063)" stroke-linecap="round" class="Up"></path><path d="M393 271L392 -199" stroke-width="8" stroke="url(#SvgjsLinearGradient3064)" stroke-linecap="round" class="Down"></path><path d="M960 464L959 1255" stroke-width="8" stroke="url(#SvgjsLinearGradient3063)" stroke-linecap="round" class="Up"></path><path d="M1496 32L1495 -634" stroke-width="8" stroke="url(#SvgjsLinearGradient3064)" stroke-linecap="round" class="Down"></path><path d="M1814 283L1813 1067" stroke-width="10" stroke="url(#SvgjsLinearGradient3064)" stroke-linecap="round" class="Down"></path><path d="M1359 18L1358 -518" stroke-width="6" stroke="url(#SvgjsLinearGradient3064)" stroke-linecap="round" class="Down"></path><path d="M1824 303L1823 668" stroke-width="10" stroke="url(#SvgjsLinearGradient3064)" stroke-linecap="round" class="Down"></path><path d="M1530 1053L1529 1422" stroke-width="10" stroke="url(#SvgjsLinearGradient3063)" stroke-linecap="round" class="Up"></path><path d="M1878 412L1877 1214" stroke-width="10" stroke="url(#SvgjsLinearGradient3063)" stroke-linecap="round" class="Up"></path><path d="M668 793L667 1094" stroke-width="6" stroke="url(#SvgjsLinearGradient3063)" stroke-linecap="round" class="Up"></path><path d="M558 3L557 723" stroke-width="6" stroke="url(#SvgjsLinearGradient3064)" stroke-linecap="round" class="Down"></path><path d="M283 138L282 798" stroke-width="8" stroke="url(#SvgjsLinearGradient3064)" stroke-linecap="round" class="Down"></path><path d="M879 107L878 -335" stroke-width="6" stroke="url(#SvgjsLinearGradient3063)" stroke-linecap="round" class="Up"></path><path d="M969 1039L968 1791" stroke-width="8" stroke="url(#SvgjsLinearGradient3063)" stroke-linecap="round" class="Up"></path><path d="M695 396L694 -336" stroke-width="6" stroke="url(#SvgjsLinearGradient3063)" stroke-linecap="round" class="Up"></path><path d="M1864 205L1863 728" stroke-width="6" stroke="url(#SvgjsLinearGradient3063)" stroke-linecap="round" class="Up"></path><path d="M1783 772L1782 1579" stroke-width="6" stroke="url(#SvgjsLinearGradient3063)" stroke-linecap="round" class="Up"></path><path d="M633 536L632 -170" stroke-width="6" stroke="url(#SvgjsLinearGradient3063)" stroke-linecap="round" class="Up"></path><path d="M1563 382L1562 979" stroke-width="10" stroke="url(#SvgjsLinearGradient3064)" stroke-linecap="round" class="Down"></path><path d="M1342 940L1341 394" stroke-width="8" stroke="url(#SvgjsLinearGradient3064)" stroke-linecap="round" class="Down"></path><path d="M1587 689L1586 1051" stroke-width="6" stroke="url(#SvgjsLinearGradient3063)" stroke-linecap="round" class="Up"></path><path d="M1578 860L1577 1228" stroke-width="10" stroke="url(#SvgjsLinearGradient3063)" stroke-linecap="round" class="Up"></path><path d="M1634 30L1633 435" stroke-width="10" stroke="url(#SvgjsLinearGradient3064)" stroke-linecap="round" class="Down"></path><path d="M1069 1004L1068 242" stroke-width="8" stroke="url(#SvgjsLinearGradient3064)" stroke-linecap="round" class="Down"></path><path d="M1124 477L1123 1186" stroke-width="8" stroke="url(#SvgjsLinearGradient3064)" stroke-linecap="round" class="Down"></path><path d="M1087 848L1086 338" stroke-width="10" stroke="url(#SvgjsLinearGradient3063)" stroke-linecap="round" class="Up"></path><path d="M1110 587L1109 91" stroke-width="10" stroke="url(#SvgjsLinearGradient3064)" stroke-linecap="round" class="Down"></path><path d="M450 170L449 884" stroke-width="8" stroke="url(#SvgjsLinearGradient3063)" stroke-linecap="round" class="Up"></path><path d="M1266 304L1265 -211" stroke-width="10" stroke="url(#SvgjsLinearGradient3064)" stroke-linecap="round" class="Down"></path><path d="M911 51L910 667" stroke-width="8" stroke="url(#SvgjsLinearGradient3064)" stroke-linecap="round" class="Down"></path><path d="M1338 516L1337 1036" stroke-width="8" stroke="url(#SvgjsLinearGradient3063)" stroke-linecap="round" class="Up"></path><path d="M1322 871L1321 499" stroke-width="10" stroke="url(#SvgjsLinearGradient3063)" stroke-linecap="round" class="Up"></path><path d="M1652 514L1651 995" stroke-width="8" stroke="url(#SvgjsLinearGradient3063)" stroke-linecap="round" class="Up"></path><path d="M1555 365L1554 -358" stroke-width="6" stroke="url(#SvgjsLinearGradient3063)" stroke-linecap="round" class="Up"></path><path d="M190 402L189 1085" stroke-width="10" stroke="url(#SvgjsLinearGradient3064)" stroke-linecap="round" class="Down"></path><path d="M794 690L793 196" stroke-width="10" stroke="url(#SvgjsLinearGradient3063)" stroke-linecap="round" class="Up"></path><path d="M1893 463L1892 1026" stroke-width="10" stroke="url(#SvgjsLinearGradient3063)" stroke-linecap="round" class="Up"></path></g><defs><mask id="SvgjsMask3061"><rect width="1920" height="1080" fill="#ffffff"></rect></mask><radialGradient cx="50%" cy="50%" r="1101.45" gradientUnits="userSpaceOnUse" id="SvgjsRadialGradient3062"><stop stop-color="#0e2a47" offset="0"></stop><stop stop-color="rgba(83, 23, 87, 1)" offset="0.82"></stop><stop stop-color="rgba(68, 20, 71, 1)" offset="1"></stop></radialGradient><linearGradient x1="0%" y1="100%" x2="0%" y2="0%" id="SvgjsLinearGradient3063"><stop stop-color="rgba(162, 40, 133, 0)" offset="0"></stop><stop stop-color="rgba(162, 40, 133, 1)" offset="1"></stop></linearGradient><linearGradient x1="0%" y1="0%" x2="0%" y2="100%" id="SvgjsLinearGradient3064"><stop stop-color="rgba(162, 40, 133, 0)" offset="0"></stop><stop stop-color="rgba(162, 40, 133, 1)" offset="1"></stop></linearGradient></defs></svg>